<?xml version="1.0" encoding="iso-8859-1"?>
<!-- Generator: Adobe Illustrator 19.0.0, SVG Export Plug-In . SVG Version: 6.00 Build 0)  -->
<svg xmlns="http://www.w3.org/2000/svg" xmlns:xlink="http://www.w3.org/1999/xlink" version="1.1" id="Capa_1" x="0px" y="0px" viewBox="0 0 496.941 496.941" style="enable-background:new 0 0 496.941 496.941;" xml:space="preserve" width="512px" height="512px">
<g>
	<g>
		<g>
			<path d="M466.824,0H30.118C13.553,0,0,13.553,0,30.118v436.706c0,16.565,13.553,30.118,30.118,30.118h436.706     c16.565,0,30.118-13.553,30.118-30.118V30.118C496.941,13.553,483.388,0,466.824,0z M481.882,466.824     c0,8.282-6.776,15.059-15.059,15.059H30.118c-8.282,0-15.059-6.776-15.059-15.059V115.953h466.823V466.824z M481.882,100.894     H15.059V30.118c0-8.282,6.776-15.059,15.059-15.059h436.706c8.282,0,15.059,6.776,15.059,15.059V100.894z" fill="#ffffff"/>
			<path d="M64.753,32.376c-14.306,0-25.6,12.047-25.6,26.353c0,14.306,11.294,26.353,25.6,26.353s26.353-12.047,26.353-26.353     C91.106,44.424,79.059,32.376,64.753,32.376z M64.753,70.024c-6.023,0-11.294-5.271-11.294-11.294     c0-6.024,5.271-11.294,11.294-11.294c6.024,0,11.294,5.271,11.294,11.294C76.047,64.753,70.776,70.024,64.753,70.024z" fill="#ffffff"/>
			<path d="M135.529,32.376c-14.306,0-26.353,12.047-26.353,26.353c0,14.306,12.047,26.353,26.353,26.353     c14.306,0,26.353-12.047,26.353-26.353C161.882,44.424,149.835,32.376,135.529,32.376z M135.529,70.024     c-6.024,0-11.294-5.271-11.294-11.294c0-6.024,5.271-11.294,11.294-11.294c6.023,0,11.294,5.271,11.294,11.294     C146.824,64.753,141.553,70.024,135.529,70.024z" fill="#ffffff"/>
			<path d="M205.553,32.376c-14.306,0-26.353,12.047-26.353,26.353c0,14.306,12.047,26.353,26.353,26.353     c14.306,0,26.353-12.047,26.353-26.353C231.906,44.424,219.859,32.376,205.553,32.376z M205.553,70.024     c-6.023,0-11.294-5.271-11.294-11.294c0-6.024,5.271-11.294,11.294-11.294c6.024,0,11.294,5.271,11.294,11.294     C216.847,64.753,211.576,70.024,205.553,70.024z" fill="#ffffff"/>
			<path d="M115.953,196.518c18.071,0,33.129-15.059,33.129-33.129c0-18.071-15.059-33.129-33.129-33.129     c-18.071,0-33.129,15.059-33.129,33.129C82.824,181.459,97.882,196.518,115.953,196.518z M115.953,145.318     c9.788,0,18.071,8.282,18.071,18.071c0,9.788-8.282,18.071-18.071,18.071c-9.788,0-18.071-7.529-18.071-18.071     C97.882,153.6,106.165,145.318,115.953,145.318z" fill="#ffffff"/>
			<path d="M68.518,261.271h94.118c4.518,0,7.529-3.012,7.529-7.529v-15.059c0-21.082-17.318-38.4-37.647-38.4H99.388     c-21.082,0-37.647,17.318-37.647,38.4v15.059C60.988,257.506,64.753,261.271,68.518,261.271z M76.047,238.682     c0-12.8,10.541-23.341,22.588-23.341h33.129c12.8,0,22.588,10.541,22.588,23.341v7.529H76.047V238.682z" fill="#ffffff"/>
			<path d="M57.976,349.365h204.8c4.518,0,7.529-3.012,7.529-7.529c0-4.518-3.012-7.529-7.529-7.529h-204.8     c-4.518,0-7.529,3.012-7.529,7.529C50.447,346.353,53.459,349.365,57.976,349.365z" fill="#ffffff"/>
			<path d="M57.976,295.153h204.8c4.518,0,7.529-3.012,7.529-7.529s-3.012-7.529-7.529-7.529h-204.8     c-4.518,0-7.529,3.012-7.529,7.529S53.459,295.153,57.976,295.153z" fill="#ffffff"/>
			<path d="M57.976,399.812h258.259c4.518,0,7.529-3.012,7.529-7.529s-3.012-7.529-7.529-7.529H57.976     c-4.518,0-7.529,3.012-7.529,7.529S53.459,399.812,57.976,399.812z" fill="#ffffff"/>
			<path d="M396.8,435.953H57.976c-4.518,0-7.529,3.012-7.529,7.529s3.012,7.529,7.529,7.529H396.8c4.518,0,7.529-3.012,7.529-7.529     S400.565,435.953,396.8,435.953z" fill="#ffffff"/>
			<path d="M216.847,234.918h233.412c4.518,0,7.529-3.012,7.529-7.529v-68.518c0-4.518-3.012-7.529-7.529-7.529H216.847     c-4.518,0-7.529,3.012-7.529,7.529v68.518C209.318,231.906,212.329,234.918,216.847,234.918z M224.376,166.4h218.353v53.459     H224.376V166.4z" fill="#ffffff"/>
			<path d="M262.776,185.224H243.2c-4.518,0-7.529,3.012-7.529,7.529s3.012,7.529,7.529,7.529h19.576     c4.518,0,7.529-3.012,7.529-7.529S267.294,185.224,262.776,185.224z" fill="#ffffff"/>
			<path d="M316.235,185.224h-19.576c-4.518,0-7.529,3.012-7.529,7.529s3.765,7.529,8.282,7.529h18.824     c4.518,0,7.529-3.012,7.529-7.529S320.753,185.224,316.235,185.224z" fill="#ffffff"/>
			<path d="M370.447,185.224h-19.576c-4.518,0-7.529,3.012-7.529,7.529s3.765,7.529,7.529,7.529h19.576     c4.518,0,7.529-3.012,7.529-7.529S374.965,185.224,370.447,185.224z" fill="#ffffff"/>
			<path d="M424.659,185.224h-19.576c-4.518,0-7.529,3.012-7.529,7.529s3.012,7.529,7.529,7.529h19.576     c4.518,0,7.529-3.012,7.529-7.529S429.176,185.224,424.659,185.224z" fill="#ffffff"/>
			<path d="M397.553,317.741l21.835-15.059c2.259-1.506,3.765-4.518,3.012-7.529s-3.012-5.271-5.271-6.024l-93.365-22.588     c-2.259-0.753-5.271,0-6.776,2.259c-1.506,1.506-2.259,4.518-2.259,6.776l23.341,93.365c0.753,3.012,3.012,5.271,6.023,5.271     c3.012,0.753,6.023-0.753,7.529-3.012l15.812-21.835l48.188,48.188c1.506,1.506,3.765,2.259,5.271,2.259     c2.259,0,3.765-0.753,5.271-2.259l19.576-19.576c3.012-3.012,3.012-7.529,0-10.541L397.553,317.741z M420.894,381.741     L371.2,332.8c-1.506-1.506-3.012-2.259-5.271-2.259h-0.753c-2.259,0-4.518,1.506-5.271,3.012l-11.294,15.812l-16.565-65.506     l64.753,16.565l-15.059,10.541c-1.506,1.506-3.012,3.012-3.012,5.271c0,2.259,0.753,4.518,2.259,6.024l49.694,50.447     L420.894,381.741z" fill="#ffffff"/>
		</g>
	</g>
</g>
<g>
</g>
<g>
</g>
<g>
</g>
<g>
</g>
<g>
</g>
<g>
</g>
<g>
</g>
<g>
</g>
<g>
</g>
<g>
</g>
<g>
</g>
<g>
</g>
<g>
</g>
<g>
</g>
<g>
</g>
</svg>
