<svg height="512pt" viewBox="0 -51 512.02357 512" width="512pt" xmlns="http://www.w3.org/2000/svg"><path d="m503.476562 76.8125v305.578125c.4375 9.867187-7.199218 18.226563-17.066406 18.6875h-460.796875c-9.867187-.460937-17.503906-8.820313-17.066406-18.6875v-305.578125l25.597656-8.535156h435.199219zm0 0" fill="#9e9e9e"/><path d="m477.878906 76.8125v305.578125c.433594 9.867187-7.199218 18.226563-17.066406 18.6875h-435.199219c-9.867187-.460937-17.503906-8.820313-17.066406-18.6875v-305.578125l25.597656-8.535156h409.601563zm0 0" fill="#f4f4f4"/><path d="m298.679688 238.945312c-.023438 70.683594-57.320313 127.976563-128 128-4.191407.03125-8.382813-.195312-12.546876-.683593-.167968 0-.339843.085937-.511718 0-65.230469-6.761719-114.796875-61.734375-114.796875-127.316407 0-65.582031 49.566406-120.554687 114.796875-127.316406.171875-.085937.34375 0 .511718 0 4.164063-.488281 8.355469-.714844 12.546876-.683594 70.679687.023438 127.976562 57.316407 128 128zm0 0" fill="#0377bc"/><path d="m273.078125 238.945312c-.082031 65.601563-49.691406 120.550782-114.945313 127.316407-6.15625-.539063-12.265624-1.566407-18.257812-3.070313-1.453125-.34375-2.816406-.769531-4.269531-1.109375-2.386719-.683593-4.777344-1.453125-7.082031-2.304687-1.792969-.597656-3.667969-1.28125-5.460938-2.046875-1.792969-.769531-3.585938-1.453125-5.375-2.304688-1.792969-.855469-3.5-1.621093-5.207031-2.476562-1.707031-.851563-3.496094-1.875-5.121094-2.816407-1.875-1.023437-3.753906-2.132812-5.546875-3.328124-1.449219-.9375-2.8125-1.875-4.265625-2.898438-1.449219-1.023438-3.070313-2.132812-4.605469-3.328125-2.648437-2.050781-5.207031-4.183594-7.679687-6.402344-1.453125-1.277343-2.902344-2.644531-4.269531-4.007812-35.398438-34.742188-47.523438-86.8125-31.113282-133.617188 16.414063-46.800781 58.402344-79.898437 107.742188-84.921875.171875-.085937.34375 0 .511718 0 65.269532 6.738282 114.890626 61.703125 114.945313 127.316406zm0 0" fill="#02a9f4"/><path d="m354.144531 128.011719h93.867188c11.78125 0 21.332031 9.550781 21.332031 21.332031 0 11.785156-9.550781 21.335938-21.332031 21.335938h-93.867188c-11.78125 0-21.332031-9.550782-21.332031-21.335938 0-11.78125 9.550781-21.332031 21.332031-21.332031zm0 0" fill="#0377bc"/><path d="m354.144531 128.011719h68.265625c11.785156 0 21.335938 9.550781 21.335938 21.332031 0 11.785156-9.550782 21.335938-21.335938 21.335938h-68.265625c-11.78125 0-21.332031-9.550782-21.332031-21.335938 0-11.78125 9.550781-21.332031 21.332031-21.332031zm0 0" fill="#02a9f4"/><path d="m260.363281 330.167969c-23.859375 23.628906-56.105469 36.851562-89.683593 36.777343-4.191407.03125-8.382813-.195312-12.546876-.683593 32.90625-3.359375 63.222657-19.359375 84.566407-44.628907l15.789062 7.507813c.640625.308594 1.269531.652344 1.875 1.027344zm0 0" fill="#283593"/><path d="m242.699219 321.632812c-21.34375 25.269532-51.660157 41.269532-84.566407 44.628907-6.15625-.539063-12.265624-1.566407-18.257812-3.070313-1.453125-.34375-2.816406-.769531-4.269531-1.109375-2.386719-.683593-4.777344-1.453125-7.082031-2.304687-1.792969-.597656-3.667969-1.28125-5.460938-2.046875-1.792969-.769531-3.585938-1.453125-5.375-2.304688-1.792969-.855469-3.5-1.621093-5.207031-2.476562-1.707031-.851563-3.496094-1.875-5.121094-2.816407-1.875-1.023437-3.753906-2.132812-5.546875-3.328124-1.449219-.9375-2.8125-1.875-4.265625-2.898438-1.449219-1.023438-3.070313-2.132812-4.605469-3.328125-2.648437-2.050781-5.207031-4.183594-7.679687-6.402344-1.453125-1.277343-2.902344-2.644531-4.269531-4.007812.609374-.375 1.234374-.71875 1.878906-1.027344l41.640625-19.878906c5.789062-2.949219 9.613281-8.710938 10.070312-15.191407v-16.042968c-6.269531-9.949219-10.90625-20.839844-13.738281-32.253906-3.398438-2.980469-6.078125-6.683594-7.851562-10.839844v-17.238282l7.167968-9.554687v-25.429687s-5.375-37.460938 50.433594-37.632813c55.894531.171875 50.601562 37.632813 50.601562 37.632813v25.429687l7.167969 9.554687v17.238282c-1.511719 4.144531-4 7.859375-7.253906 10.839844-2.964844 11.46875-7.808594 22.367187-14.335937 32.253906v16.042968c.097656 6.597657 4.03125 12.53125 10.070312 15.191407zm0 0" fill="#3f51b5"/><path d="m503.476562 27.234375v49.578125h-494.929687v-49.578125c-.4375-9.871094 7.199219-18.226563 17.066406-18.6875h460.796875c9.867188.460937 17.503906 8.816406 17.066406 18.6875zm0 0" fill="#6a1b9a"/><path d="m477.878906 27.234375v49.578125h-469.332031v-49.578125c-.4375-9.871094 7.199219-18.226563 17.066406-18.6875h435.199219c9.867188.460937 17.5 8.816406 17.066406 18.6875zm0 0" fill="#9d27b0"/><path d="m486.410156.0117188h-460.796875c-14.582031.4648432-26.03125 12.6406252-25.6015622 27.2226562v355.15625c-.4296878 14.578125 11.0195312 26.757813 25.6015622 27.222656h460.796875c14.582032-.464843 26.03125-12.644531 25.601563-27.222656v-355.15625c.429687-14.582031-11.019531-26.757813-25.601563-27.2226562zm-460.796875 17.0664062h460.796875c5.140625.492187 8.933594 5.007813 8.535156 10.15625v41.042969h-477.867187v-41.042969c-.398437-5.148437 3.394531-9.664063 8.535156-10.15625zm460.796875 375.46875h-460.796875c-5.140625-.492187-8.933593-5.011719-8.535156-10.15625v-297.046875h477.867187v297.046875c.398438 5.144531-3.394531 9.664063-8.535156 10.15625zm0 0"/><path d="m42.679688 51.210938h76.796874c4.714844 0 8.535157-3.820313 8.535157-8.53125 0-4.714844-3.820313-8.535157-8.535157-8.535157h-76.796874c-4.714844 0-8.535157 3.820313-8.535157 8.535157 0 4.710937 3.820313 8.53125 8.535157 8.53125zm0 0"/><path d="m446.246094 57.246094c3.332031 3.328125 8.734375 3.328125 12.066406 0l2.5-2.5 2.5 2.5c3.347656 3.234375 8.671875 3.1875 11.960938-.105469 3.292968-3.292969 3.339843-8.613281.105468-11.960937l-2.5-2.5 2.5-2.5c3.234375-3.351563 3.1875-8.671876-.105468-11.964844-3.289063-3.289063-8.613282-3.335938-11.960938-.101563l-2.5 2.5-2.5-2.5c-3.347656-3.234375-8.671875-3.1875-11.964844.101563-3.289062 3.292968-3.335937 8.613281-.101562 11.964844l2.5 2.5-2.5 2.5c-3.332032 3.332031-3.332032 8.734374 0 12.066406zm0 0"/><path d="m170.679688 102.410156c-55.132813-.03125-104.867188 33.113282-126.054688 84.011719s-9.664062 109.546875 29.207031 148.644531c0 .050782 0 .101563.070313.152344.179687.238281.453125.332031.640625.554688 43.800781 43.542968 111.375 52.257812 164.792969 21.257812 53.414062-31 79.367187-94 63.289062-153.632812-16.078125-59.628907-70.1875-101.042969-131.945312-100.988282zm-74.453126 229.8125 31.914063-15.230468c8.769531-4.371094 14.496094-13.136719 14.976563-22.921876v-16.042968c0-1.699219-.511719-3.359375-1.460938-4.769532-5.6875-9.125-9.914062-19.085937-12.527344-29.515624-.492187-2.222657-1.894531-4.132813-3.863281-5.265626-1.519531-1.640624-2.777344-3.5-3.738281-5.511718v-12.425782l5.460937-7.277343c1.105469-1.480469 1.707031-3.277344 1.707031-5.121094v-25.429687c0-.40625-.027343-.8125-.085937-1.210938-.414063-5.898438 1.511719-11.722656 5.359375-16.214844 6.570312-7.601562 19.242188-11.648437 36.597656-11.699218 17.359375-.050782 29.96875 4.046874 36.609375 11.539062 3.957031 4.5 5.960938 10.390625 5.570313 16.375-.058594.390625-.085938.789062-.082032 1.183594v25.429687c0 1.847657.597657 3.644531 1.703126 5.121094l5.464843 7.277344v12.65625c-.789062 1.863281-1.8125 3.617187-3.039062 5.222656-1.964844 1.152344-3.386719 3.042969-3.953125 5.246094-2.71875 10.457031-7.125 20.398437-13.039063 29.441406-1.015625 1.441406-1.558593 3.160156-1.558593 4.925781v16.039063c.050781 9.898437 5.890624 18.851562 14.921874 22.898437l31.976563 15.238282c-43.492187 34.929687-105.421875 34.929687-148.914063 0zm162.25-12.542968-38.023437-18.152344c-3.019531-1.269532-5.019531-4.183594-5.121094-7.457032v-13.492187c5.8125-9.324219 10.300781-19.414063 13.339844-29.976563 3.347656-3.65625 5.953125-7.921874 7.679687-12.570312.390626-.984375.589844-2.035156.589844-3.097656v-17.238282c0-1.84375-.601562-3.640624-1.707031-5.117187l-5.460937-7.28125v-22.183594c.765624-10.527343-2.640626-20.9375-9.480469-28.972656-10.113281-11.621094-26.804688-17.527344-49.726563-17.59375-22.816406.066406-39.472656 5.972656-49.492187 17.601563-6.835938 8.054687-10.222657 18.480468-9.429688 29.015624v22.183594l-5.460937 7.28125c-1.109375 1.476563-1.707032 3.273438-1.707032 5.121094v17.234375c0 1.207031.257813 2.398437.75 3.5 1.957032 4.515625 4.691407 8.648437 8.082032 12.210937 2.90625 10.480469 7.195312 20.523438 12.757812 29.867188v13.507812c-.46875 3.175782-2.398437 5.949219-5.214844 7.492188l-37.972656 18.117188c-43.898437-47.574219-41.921875-121.457032 4.460938-166.617188 46.382812-45.15625 120.292968-45.15625 166.675781 0 46.382813 45.160156 48.359375 119.042969 4.460937 166.617188zm0 0"/><path d="m153.613281 51.210938h179.199219c4.710938 0 8.53125-3.820313 8.53125-8.53125 0-4.714844-3.820312-8.535157-8.53125-8.535157h-179.199219c-4.714843 0-8.535156 3.820313-8.535156 8.535157 0 4.710937 3.820313 8.53125 8.535156 8.53125zm0 0"/><path d="m448.011719 119.476562h-93.867188c-16.496093 0-29.867187 13.375-29.867187 29.867188 0 16.496094 13.371094 29.867188 29.867187 29.867188h93.867188c16.496093 0 29.867187-13.371094 29.867187-29.867188 0-16.492188-13.371094-29.867188-29.867187-29.867188zm0 42.667969h-93.867188c-7.070312 0-12.800781-5.730469-12.800781-12.800781 0-7.066406 5.730469-12.796875 12.800781-12.796875h93.867188c7.070312 0 12.800781 5.730469 12.800781 12.796875 0 7.070312-5.730469 12.800781-12.800781 12.800781zm0 0"/><path d="m349.878906 204.8125h-8.535156c-4.710938 0-8.53125 3.820312-8.53125 8.53125 0 4.714844 3.820312 8.535156 8.53125 8.535156h8.535156c4.710938 0 8.53125-3.820312 8.53125-8.535156 0-4.710938-3.820312-8.53125-8.53125-8.53125zm0 0"/><path d="m460.8125 204.8125h-76.800781c-4.710938 0-8.535157 3.820312-8.535157 8.53125 0 4.714844 3.824219 8.535156 8.535157 8.535156h76.800781c4.710938 0 8.53125-3.820312 8.53125-8.535156 0-4.710938-3.820312-8.53125-8.53125-8.53125zm0 0"/><path d="m349.878906 238.945312h-8.535156c-4.710938 0-8.53125 3.820313-8.53125 8.53125 0 4.714844 3.820312 8.535157 8.53125 8.535157h8.535156c4.710938 0 8.53125-3.820313 8.53125-8.535157 0-4.710937-3.820312-8.53125-8.53125-8.53125zm0 0"/><path d="m460.8125 238.945312h-76.800781c-4.710938 0-8.535157 3.820313-8.535157 8.53125 0 4.714844 3.824219 8.535157 8.535157 8.535157h76.800781c4.710938 0 8.53125-3.820313 8.53125-8.535157 0-4.710937-3.820312-8.53125-8.53125-8.53125zm0 0"/><path d="m349.878906 273.078125h-8.535156c-4.710938 0-8.53125 3.820313-8.53125 8.535156 0 4.710938 3.820312 8.53125 8.53125 8.53125h8.535156c4.710938 0 8.53125-3.820312 8.53125-8.53125 0-4.714843-3.820312-8.535156-8.53125-8.535156zm0 0"/><path d="m460.8125 273.078125h-76.800781c-4.710938 0-8.535157 3.820313-8.535157 8.535156 0 4.710938 3.824219 8.53125 8.535157 8.53125h76.800781c4.710938 0 8.53125-3.820312 8.53125-8.53125 0-4.714843-3.820312-8.535156-8.53125-8.535156zm0 0"/><path d="m349.878906 307.210938h-8.535156c-4.710938 0-8.53125 3.820312-8.53125 8.535156 0 4.710937 3.820312 8.53125 8.53125 8.53125h8.535156c4.710938 0 8.53125-3.820313 8.53125-8.53125 0-4.714844-3.820312-8.535156-8.53125-8.535156zm0 0"/><path d="m460.8125 307.210938h-76.800781c-4.710938 0-8.535157 3.820312-8.535157 8.535156 0 4.710937 3.824219 8.53125 8.535157 8.53125h76.800781c4.710938 0 8.53125-3.820313 8.53125-8.53125 0-4.714844-3.820312-8.535156-8.53125-8.535156zm0 0"/><path d="m349.878906 341.34375h-8.535156c-4.710938 0-8.53125 3.820312-8.53125 8.535156 0 4.710938 3.820312 8.53125 8.53125 8.53125h8.535156c4.710938 0 8.53125-3.820312 8.53125-8.53125 0-4.714844-3.820312-8.535156-8.53125-8.535156zm0 0"/><path d="m460.8125 341.34375h-76.800781c-4.710938 0-8.535157 3.820312-8.535157 8.535156 0 4.710938 3.824219 8.53125 8.535157 8.53125h76.800781c4.710938 0 8.53125-3.820312 8.53125-8.53125 0-4.714844-3.820312-8.535156-8.53125-8.535156zm0 0"/></svg>