<?xml version="1.0"?>
<svg xmlns="http://www.w3.org/2000/svg" height="512px" viewBox="0 -27 512 512" width="512px"><path d="m256.003906 365.96875h-.296875c-5.523437 0-10 4.476562-10 10 0 5.519531 4.476563 10 10 10h.296875c5.523438 0 10-4.480469 10-10 0-5.523438-4.476562-10-10-10zm0 0" fill="#FFFFFF"/><path d="m321.484375 314.695312c.402344-.386718.769531-.800781 1.101563-1.246093 13.339843-15.429688 21.417968-35.527344 21.417968-57.480469 0-48.523438-39.476562-88-88-88-48.523437 0-88 39.476562-88 88 0 21.941406 8.074219 42.035156 21.402344 57.460938.339844.460937.722656.886718 1.136719 1.285156 16.121093 17.945312 39.492187 29.253906 65.460937 29.253906 25.976563 0 49.355469-11.316406 65.480469-29.273438zm-112.332031-9.515624c6.046875-11.9375 18.308594-19.628907 32.054687-19.628907h29.59375c13.746094 0 26.003907 7.691407 32.054688 19.628907-12.207031 11.628906-28.703125 18.789062-46.851563 18.789062-18.148437 0-34.644531-7.160156-46.851562-18.789062zm46.851562-39.628907c-10.914062 0-19.789062-8.878906-19.789062-19.792969 0-10.910156 8.875-19.789062 19.789062-19.789062 10.914063 0 19.792969 8.878906 19.792969 19.789062 0 10.914063-8.878906 19.792969-19.792969 19.792969zm0-77.582031c37.496094 0 68 30.503906 68 68 0 11.671875-2.957031 22.667969-8.164062 32.277344-6.800782-9.238282-16.289063-16.152344-27.175782-19.796875 4.488282-6.441407 7.132813-14.261719 7.132813-22.691407 0-21.9375-17.851563-39.789062-39.792969-39.789062s-39.789062 17.851562-39.789062 39.789062c0 8.429688 2.640625 16.25 7.128906 22.691407-10.886719 3.644531-20.375 10.558593-27.175781 19.796875-5.203125-9.609375-8.164063-20.605469-8.164063-32.277344 0-37.496094 30.503906-68 68-68zm0 0" fill="#FFFFFF"/><path d="m473.886719 268.484375c4.5-6.449219 7.152343-14.28125 7.152343-22.722656 0-21.941407-17.847656-39.792969-39.789062-39.792969s-39.792969 17.851562-39.792969 39.792969c0 8.441406 2.652344 16.273437 7.15625 22.722656-10.574219 3.566406-19.742187 10.207031-26.433593 18.863281 2.515624-10.167968 3.824218-20.683594 3.824218-31.378906 0-71.683594-58.320312-130-130-130-71.683594 0-130 58.316406-130 130 0 10.78125 1.359375 21.339844 3.902344 31.496094-6.699219-8.710938-15.902344-15.398438-26.523438-18.980469 4.503907-6.449219 7.15625-14.28125 7.15625-22.722656 0-21.941407-17.851562-39.792969-39.792968-39.792969-21.9375 0-39.789063 17.851562-39.789063 39.792969 0 8.441406 2.652344 16.273437 7.152344 22.722656-22.125 7.464844-38.109375 28.40625-38.109375 53.019531v6.617188c0 5.523437 4.476562 10 10 10h121.5c5.523438 0 10-4.476563 10-10v-6.617188c0-1.507812-.078125-2.996094-.195312-4.476562 14.917968 27.988281 39.875 50.304687 71.003906 61.414062 1.113281.394532 2.246094.582032 3.359375.582032 4.109375 0 7.960937-2.550782 9.417969-6.640626 1.855468-5.203124-.855469-10.921874-6.058594-12.777343-43.675782-15.585938-73.023438-57.234375-73.023438-103.636719 0-60.652344 49.34375-110 110-110 60.652344 0 110 49.347656 110 110 0 45.871094-28.902344 87.355469-71.917968 103.230469-5.179688 1.914062-7.832032 7.664062-5.917969 12.84375 1.910156 5.183593 7.664062 7.828125 12.84375 5.921875 6.886719-2.542969 13.484375-5.65625 19.765625-9.261719l79.335937 79.332031c6.609375 6.613282 15.292969 9.917969 23.976563 9.917969s17.367187-3.308594 23.976562-9.917969c13.222656-13.21875 13.222656-34.730468 0-47.953125l-61.960937-61.960937h115.894531c5.523438 0 10-4.476563 10-10v-6.617188c0-24.617187-15.984375-45.554687-38.113281-53.019531zm-403.136719-42.515625c10.914062 0 19.789062 8.878906 19.789062 19.789062 0 10.914063-8.875 19.792969-19.789062 19.792969s-19.789062-8.878906-19.789062-19.792969c0-10.910156 8.875-19.789062 19.789062-19.789062zm-50.59375 92.152344c1.710938-18.242188 17.113281-32.570313 35.796875-32.570313h29.59375c18.683594 0 34.085937 14.328125 35.796875 32.570313zm413.769531 115.773437c-5.421875 5.421875-14.25 5.421875-19.667969 0l-76.683593-76.683593c7.195312-5.808594 13.777343-12.394532 19.652343-19.6875l76.699219 76.699218c5.421875 5.425782 5.421875 14.25 0 19.671875zm7.324219-207.925781c10.914062 0 19.789062 8.878906 19.789062 19.789062 0 10.914063-8.875 19.792969-19.789062 19.792969s-19.789062-8.878906-19.789062-19.792969c0-10.910156 8.875-19.789062 19.789062-19.789062zm-50.59375 92.152344c1.710938-18.242188 17.113281-32.570313 35.796875-32.570313h29.59375c18.683594 0 34.085937 14.328125 35.796875 32.570313zm0 0" fill="#FFFFFF"/><path d="m248.929688 94.871094c1.953124 1.953125 4.511718 2.929687 7.070312 2.929687s5.117188-.976562 7.070312-2.929687l77.800782-77.800782c3.90625-3.90625 3.90625-10.234374 0-14.140624-3.902344-3.90625-10.234375-3.90625-14.140625 0l-70.730469 70.730468-30.761719-30.761718c-3.90625-3.90625-10.238281-3.90625-14.144531 0-3.902344 3.902343-3.902344 10.234374 0 14.140624zm0 0" fill="#FFFFFF"/></svg>
