<svg height="503pt" viewBox="0 0 503 503.87078" width="503pt" xmlns="http://www.w3.org/2000/svg"><path d="m310.992188 8.394531h-285.375c-9.261719.027344-16.761719 7.527344-16.789063 16.785157v419.671874c.027344 9.261719 7.527344 16.761719 16.789063 16.789063h113.476562l188.6875-176.261719v-260.199218c-.027344-9.257813-7.527344-16.757813-16.789062-16.785157zm0 0" fill="#4e342e"/><path d="m285.8125 8.394531h-260.195312c-9.261719.027344-16.761719 7.527344-16.789063 16.785157v419.671874c.027344 9.261719 7.527344 16.761719 16.789063 16.789063h88.296874l188.683594-176.261719v-260.199218c-.027344-9.257813-7.527344-16.757813-16.785156-16.785157zm0 0" fill="#795548"/><path d="m294.207031 50.359375v201.445313l-134.296875 176.261718h-109.113281c-4.636719 0-8.394531-3.757812-8.394531-8.394531v-369.3125c0-4.632813 3.757812-8.390625 8.394531-8.390625h235.015625c4.636719 0 8.394531 3.757812 8.394531 8.390625zm0 0" fill="#fff"/><path d="m101.15625 416.148438-8.394531 11.917968h-8.390625zm0 0" fill="#e4c05c"/><path d="m345.070312 411.195312c-.335937 2.8125-.503906 5.644532-.503906 8.476563 0 0-6.714844-33.574219-33.574218-33.574219-26.859376 0-33.574219 33.574219-33.574219 33.574219.003906-2.832031-.164063-5.664063-.503907-8.476563l.503907.082032-25.179688-92.328125 41.96875-83.933594h33.574219l33.570312 92.328125-16.785156 83.933594zm0 0" fill="#607d8b"/><path d="m294.207031 209.835938v75.542968h-.167969c-1.371093-17.683594-11.226562-33.609375-26.441406-42.722656h-.082031l-40.457031-7.640625v-25.179687c0-18.542969 15.03125-33.574219 33.574218-33.574219 18.542969 0 33.574219 15.03125 33.574219 33.574219zm0 0" fill="#cfd8dc"/><path d="m394.925781 209.835938v26.691406s-30.214843 5.371094-40.453125 6.128906h-.085937c-15.214844 9.113281-25.070313 25.039062-26.4375 42.722656h-.167969v-75.542968c-.023438-13.671876 8.289062-25.976563 20.980469-31.054688 3.980469-1.695312 8.265625-2.550781 12.589843-2.519531 18.542969 0 33.574219 15.03125 33.574219 33.574219zm0 0" fill="#607d8b"/><path d="m294.207031 285.378906v41.964844l-16.789062 83.933594-.503907-.082032c-3.640624-32.050781-27.230468-58.25-58.726562-65.226562-31.492188-6.972656-63.941406 6.820312-80.769531 34.339844l50.695312-108.613282 4.699219-10.070312c7.378906-13.109375 19.71875-22.699219 34.246094-26.609375l.585937.085937c13.648438-.027343 27.175781 2.539063 39.871094 7.554688h.082031c16.210938 8.066406 26.453125 24.617188 26.441406 42.722656zm0 0" fill="#cfd8dc"/><path d="m484.570312 380.308594c-13.742187-22.441406-38.148437-36.136719-64.460937-36.175782-4.25-.023437-8.492187.339844-12.675781 1.089844-33.1875 5.597656-58.640625 32.523438-62.363282 65.972656l-.503906.082032-7.890625-39.617188-8.894531-44.316406v-41.964844h.167969c1.367187-17.683594 11.222656-33.609375 26.4375-42.722656h.085937c5.886719-2.722656 12.179688-4.453125 18.632813-5.121094 7.230469-.964844 14.53125-1.304687 21.820312-1.007812 14.335938 3.398437 26.6875 12.449218 34.246094 25.097656l4.699219 10.070312zm0 0" fill="#607d8b"/><path d="m277.417969 411.277344c.023437 31.972656-20.089844 60.496094-50.210938 71.21875-30.121093 10.71875-63.730469 1.316406-83.914062-23.480469-20.183594-24.796875-22.570313-59.613281-5.960938-86.933594l.085938-.167969c16.828125-27.515624 49.277343-41.3125 80.769531-34.335937 31.496094 6.972656 55.085938 33.171875 58.726562 65.222656.339844 2.8125.507813 5.644531.503907 8.476563zm0 0" fill="#00bcd4"/><path d="m369.746094 209.835938v26.691406s-30.214844 5.371094-40.457032 6.128906h-.082031c-.515625.277344-.992187.613281-1.425781 1.003906v-33.824218c-.023438-13.671876 8.289062-25.976563 20.980469-31.054688 12.695312 5.078125 21.007812 17.382812 20.984375 31.054688zm0 0" fill="#cfd8dc"/><path d="m459.390625 380.308594c-11.394531-18.695313-30.359375-31.503906-51.957031-35.085938-4.125-.746094-8.3125-1.109375-12.507813-1.089844-23.5 0-36.59375 33.570313-50.359375 50.359376l-16.785156-67.148438v-41.964844h.167969c1.367187-17.683594 11.222656-33.609375 26.4375-42.722656h.085937c5.886719-2.722656 12.179688-4.453125 18.632813-5.121094 12.953125 3.871094 23.976562 12.46875 30.886719 24.089844l4.699218 10.070312 35.671875 76.464844zm0 0" fill="#cfd8dc"/><path d="m495.648438 419.671875c0 41.71875-33.820313 75.542969-75.539063 75.542969-4.21875.003906-8.429687-.332032-12.59375-1.007813-36.347656-6.171875-62.945313-37.664062-62.949219-74.535156 0-2.832031.167969-5.664063.503906-8.476563 3.722657-33.449218 29.175782-60.375 62.363282-65.972656 4.183594-.75 8.425781-1.113281 12.675781-1.089844 26.320313.003907 50.742187 13.707032 64.460937 36.175782l.082032.167968c7.207031 11.800782 11.011718 25.367188 10.996094 39.195313zm0 0" fill="#00838f"/><path d="m470.46875 419.671875c-.003906 36.871094-26.601562 68.363281-62.953125 74.535156-36.347656-6.171875-62.945313-37.664062-62.949219-74.535156 0-2.832031.167969-5.664063.503906-8.476563 3.722657-33.449218 29.175782-60.375 62.363282-65.972656 21.597656 3.582032 40.5625 16.390625 51.957031 35.085938l.082031.167968c7.207032 11.800782 11.011719 25.367188 10.996094 39.195313zm0 0" fill="#00bcd4"/><path d="m201.878906 369.3125c-27.804687.027344-50.332031 22.558594-50.363281 50.359375 0 4.636719 3.757813 8.394531 8.394531 8.394531 4.636719 0 8.394532-3.757812 8.394532-8.394531 0-18.542969 15.03125-33.574219 33.574218-33.574219 4.632813 0 8.390625-3.757812 8.390625-8.394531 0-4.632813-3.757812-8.390625-8.390625-8.390625zm0 0"/><path d="m420.109375 369.3125c-27.804687.027344-50.335937 22.558594-50.363281 50.359375 0 4.636719 3.757812 8.394531 8.394531 8.394531s8.394531-3.757812 8.394531-8.394531c0-18.542969 15.03125-33.574219 33.574219-33.574219 4.632813 0 8.390625-3.757812 8.390625-8.394531 0-4.632813-3.757812-8.390625-8.390625-8.390625zm0 0"/><path d="m441.503906 268.203125c-1.253906-3.585937-2.867187-7.039063-4.8125-10.304687l-.585937-1.253907c-.445313-.945312-1.066407-1.800781-1.828125-2.515625-7.542969-11.019531-18.378906-19.367187-30.957032-23.847656v-20.445312c-.027343-23.167969-18.800781-41.9375-41.96875-41.96875-9.109374.03125-17.957031 3.058593-25.179687 8.613281v-151.300781c0-13.90625-11.273437-25.179688-25.179687-25.179688h-285.375c-13.90625 0-25.183594 11.273438-25.183594 25.179688v419.671874c0 13.90625 11.277344 25.179688 25.183594 25.179688h109.273437c21.507813 28.730469 58.921875 40.574219 93.042969 29.453125s57.371094-42.734375 57.820312-78.621094c.804688-3.433593 6.875-26.371093 25.238282-26.371093 18.367187 0 24.339843 22.5625 25.238281 26.347656.382812 35.292968 22.804687 66.578125 56.105469 78.28125 33.296874 11.699218 70.363281 1.320312 92.738281-25.980469 22.375-27.296875 25.285156-65.675781 7.277343-96.03125zm-415.886718 185.042969c-4.636719 0-8.394532-3.757813-8.394532-8.394532v-419.671874c0-4.636719 3.757813-8.394532 8.394532-8.394532h285.375c4.636718 0 8.394531 3.757813 8.394531 8.394532v201.441406h-16.789063v-16.785156c0-23.175782-18.789062-41.96875-41.964844-41.96875-23.179687 0-41.96875 18.792968-41.96875 41.96875v20.453124c-12.589843 4.484376-23.433593 12.847657-30.960937 23.890626-.753906.703124-1.371094 1.539062-1.824219 2.464843l-.652344 1.394531c-1.910156 3.222657-3.5 6.625-4.742187 10.15625l-50.789063 108.914063c-13.785156 23.128906-15.53125 51.492187-4.691406 76.136719zm176.261718 33.574218c-22.863281.042969-44.171875-11.570312-56.523437-30.808593-12.351563-19.238281-14.046875-43.445313-4.488281-64.214844.597656-.636719 1.09375-1.359375 1.46875-2.148437l2.238281-4.800782c16.8125-27.714844 51.027343-39.464844 81.320312-27.921875s48.015625 43.078125 42.121094 74.953125c-5.894531 31.878906-33.71875 54.992188-66.136719 54.941406zm109.113282-109.117187c-6.875-.042969-13.613282 1.898437-19.414063 5.59375l10.851563-54.273437c.707031-2.984376-.273438-6.117188-2.554688-8.167969-2.28125-2.054688-5.5-2.695313-8.394531-1.679688s-5.003907 3.53125-5.5 6.558594l-10.683594 53.390625c-21.992187-39.957031-71.917969-54.960938-112.289063-33.742188l37.191407-79.65625c6.449219-10.675781 16.949219-18.285156 29.101562-21.101562 2.171875-.492188 4.058594-1.835938 5.246094-3.722656 1.183594-1.890625 1.566406-4.175782 1.0625-6.347656 0-.101563-.097656-.167969-.125-.269532v-24.449218c0-13.90625 11.273437-25.179688 25.179687-25.179688 13.910157 0 25.183594 11.273438 25.183594 25.179688v37.082031c-4.058594-4.457031-8.734375-8.3125-13.882812-11.449219-.273438-.140625-.554688-.265625-.839844-.367188-.179688-.089843-.367188-.167968-.554688-.234374-.953124-.375-1.964843-.582032-2.988281-.605469-4.636719 0-8.394531 3.757812-8.394531 8.394531 0 .234375.117188.425781.136719.644531.046875.707031.1875 1.402344.417969 2.074219.132812.375.289062.738281.46875 1.089844.28125.523437.613281 1.015625.992187 1.46875.238281.300781.5.578125.78125.839844.484375.460937 1.027344.859374 1.609375 1.183593 12.738281 7.742188 20.980469 21.136719 22.144531 36 .324219 4.390625 3.988281 7.785157 8.390625 7.773438h.640625c.28125-.066407.5625-.148438.839844-.246094.796875-.097656 1.578125-.316406 2.316406-.644531l.074219-.050782c2.808594-1.40625 4.585938-4.273437 4.597656-7.410156v-41.96875h16.789063v41.96875c.019531 3.15625 1.828125 6.03125 4.667969 7.417969l.074218.058594c.734375.328125 1.515625.546875 2.316406.644531.273438.097656.554688.179688.839844.246094h.636719c4.402344.011718 8.066406-3.382813 8.394531-7.773438 1.15625-14.722656 9.261719-28.011718 21.824219-35.78125.773437-.390625 1.484375-.902344 2.105469-1.511718.160156-.160157.277344-.34375.425781-.511719.503906-.5625.925781-1.191407 1.253906-1.871094.128907-.238281.238281-.484375.335938-.738281.371093-.933594.566406-1.925782.585937-2.929688 0-4.636718-3.757812-8.394531-8.394531-8.394531-.988281.023437-1.964844.222656-2.886719.589844-.261718.089843-.496094.199219-.746094.316406-.238281.089844-.46875.191406-.699218.304687-5.171875 3.136719-9.871094 7-13.949219 11.472657v-37.082031c0-13.90625 11.273437-25.179688 25.179687-25.179688 13.910157 0 25.183594 11.273438 25.183594 25.179688v26.691406c.035156.234375.082032.46875.140625.695312.046875.570313.160157 1.132813.328125 1.679688.136719.503906.320313.992187.554688 1.460937.238281.460938.519531.898438.839844 1.308594.320312.429687.6875.824219 1.089843 1.175781.398438.324219.828125.605469 1.285157.839844.484374.296875 1.003906.535156 1.542968.710938.207032.113281.417969.210937.636719.296874 12.050781 2.882813 22.441406 10.472657 28.851563 21.074219l37.132812 79.578125c-40.375-21.214844-90.300781-6.214844-112.289062 33.742188l-10.644532-53.425782c-.496094-3.027343-2.605468-5.539062-5.5-6.554687-2.894531-1.019531-6.113281-.375-8.394531 1.675781-2.28125 2.054688-3.261719 5.183594-2.554687 8.171875l10.851562 54.304688c-5.800781-3.683594-12.542969-5.609375-19.414062-5.558594zm109.117187 109.117187c-32.417969.050782-60.246094-23.0625-66.140625-54.941406-5.894531-31.875 11.828125-63.410156 42.121094-74.953125 30.292968-11.542969 64.507812.207031 81.320312 27.921875l2.242188 4.800782c.375.789062.867187 1.511718 1.46875 2.148437 9.554687 20.769531 7.863281 44.976563-4.492188 64.214844-12.351562 19.238281-33.660156 30.851562-56.519531 30.808593zm0 0"/><path d="m117.945312 344.132812c4.632813 0 8.390626-3.757812 8.390626-8.394531s-3.757813-8.394531-8.390626-8.394531h-16.789062v-25.179688h33.574219c4.636719 0 8.394531-3.757812 8.394531-8.394531 0-4.632812-3.757812-8.390625-8.394531-8.390625h-33.574219v-25.183594h58.753906c4.636719 0 8.394532-3.757812 8.394532-8.390624 0-4.636719-3.757813-8.394532-8.394532-8.394532h-58.753906v-25.179687h92.328125c4.636719 0 8.394531-3.757813 8.394531-8.394531 0-4.636719-3.757812-8.394532-8.394531-8.394532h-92.328125v-25.179687h100.722656c4.632813 0 8.390625-3.757813 8.390625-8.394531 0-4.632813-3.757812-8.390626-8.390625-8.390626h-100.722656v-25.179687h184.65625v8.390625c0 4.636719 3.757812 8.394531 8.394531 8.394531 4.632813 0 8.390625-3.757812 8.390625-8.394531v-100.71875c0-4.636719-3.757812-8.394531-8.390625-8.394531h-251.804687c-4.636719 0-8.394532 3.757812-8.394532 8.394531v386.097656c0 4.632813 3.757813 8.394532 8.394532 8.394532h50.359375c4.636719 0 8.394531-3.761719 8.394531-8.394532v-83.933594zm-33.574218-16.789062h-33.574219v-25.179688h33.574219zm-33.574219-235.015625h33.574219v25.179687h-33.574219zm33.574219 193.050781h-33.574219v-25.183594h33.574219zm0-41.96875h-33.574219v-25.179687h33.574219zm0-41.96875h-33.574219v-25.179687h33.574219zm0-41.964844h-33.574219v-25.179687h33.574219zm16.785156-41.96875v-25.179687h184.65625v25.179687zm184.65625-41.96875h-184.65625v-25.179687h184.65625zm-201.441406-25.179687v25.179687h-33.574219v-25.179687zm-33.574219 335.738281h33.574219v33.574219h-33.574219zm33.574219-16.785156h-33.574219v-25.179688h33.574219zm0 0"/></svg>