<?xml version="1.0" encoding="iso-8859-1"?>
<!-- Generator: Adobe Illustrator 19.0.0, SVG Export Plug-In . SVG Version: 6.00 Build 0)  -->
<svg xmlns="http://www.w3.org/2000/svg" xmlns:xlink="http://www.w3.org/1999/xlink" version="1.1" id="Capa_1" x="0px" y="0px" viewBox="0 0 496.941 496.941" style="enable-background:new 0 0 496.941 496.941;" xml:space="preserve" width="512px" height="512px">
<g>
	<g>
		<g>
			<path d="M98.635,389.271c32.376,0,57.976-26.353,57.976-57.976c0-32.376-26.353-57.977-57.976-57.977     c-32.376,0-57.976,26.353-57.976,57.977S66.259,389.271,98.635,389.271z M98.635,288.376c23.341,0,42.918,19.576,42.918,42.918     s-19.576,42.918-42.918,42.918c-23.341,0-42.918-19.577-42.918-42.918C55.718,307.953,74.541,288.376,98.635,288.376z" fill="#FFFFFF"/>
			<path d="M140.8,392.282H56.471C24.847,392.282,0,417.882,0,448.753v40.659c0,4.518,3.012,7.529,7.529,7.529h182.212     c4.518,0,7.529-3.012,7.529-7.529v-39.906C197.271,417.882,171.671,392.282,140.8,392.282z M181.459,481.882h-166.4v-32.376     c0-23.341,18.823-41.412,41.412-41.412h83.576c23.341,0,41.412,18.824,41.412,41.412V481.882z" fill="#FFFFFF"/>
			<path d="M340.329,331.294c0,32.376,26.353,57.976,57.977,57.976s57.976-26.353,57.976-57.976     c0-32.376-26.353-57.977-57.976-57.977S340.329,298.918,340.329,331.294z M441.224,331.294c0,23.341-19.576,42.918-42.918,42.918     s-42.918-19.576-42.918-42.918s19.576-42.918,42.918-42.918S441.224,307.2,441.224,331.294z" fill="#FFFFFF"/>
			<path d="M440.471,392.282h-84.329c-31.624,0-56.471,25.6-56.471,56.471v40.659c0,4.518,3.012,7.529,7.529,7.529h182.212     c4.518,0,7.529-3.012,7.529-7.529v-39.906C496.941,417.882,471.341,392.282,440.471,392.282z M314.729,481.882v-32.376     c0-23.341,18.824-41.412,41.412-41.412h83.576c23.341,0,41.412,18.824,41.412,41.412v32.376H314.729z" fill="#FFFFFF"/>
			<path d="M272.565,170.165h-17.318c23.341-3.012,42.165-23.341,42.165-47.435c0-26.353-21.835-48.188-48.188-48.188     s-48.188,21.835-48.188,48.188c0,24.094,18.071,44.424,42.165,47.435h-17.318c-31.624,0-56.471,25.6-56.471,56.471v22.588     c0,4.518,3.012,7.529,7.529,7.529h146.071c3.012,0,6.023-3.012,6.023-7.529v-22.588     C329.035,195.012,303.435,170.165,272.565,170.165z M215.341,121.976c0-18.071,15.059-33.129,33.129-33.129     c18.071,0,33.129,15.059,33.129,33.129c0,18.071-15.059,33.129-33.129,33.129S215.341,140.8,215.341,121.976z M313.224,241.694     H182.965v-15.059c0-23.341,18.823-41.412,41.412-41.412h47.435c23.341,0,41.412,18.824,41.412,41.412V241.694z" fill="#FFFFFF"/>
			<path d="M394.541,173.176h12.047c4.518,0,7.529-3.012,7.529-7.529s-3.012-7.529-7.529-7.529h-11.294     C390.776,82.824,330.541,22.588,256,18.824V7.529C256,3.012,252.988,0,248.471,0s-7.529,3.012-7.529,7.529v11.294     c-74.541,3.765-134.776,64-138.541,139.294H90.353c-4.518,0-7.529,3.012-7.529,7.529s3.012,7.529,7.529,7.529h11.294     c3.765,75.294,64,134.776,138.541,139.294v11.294c0,4.518,3.012,7.529,7.529,7.529s7.529-3.012,7.529-7.529v-11.294     C330.541,307.953,390.776,247.718,394.541,173.176z M256,297.412v-11.294c0-4.518-3.012-7.529-7.529-7.529     s-7.529,3.012-7.529,7.529v10.541c-66.259-3.765-119.718-57.224-123.482-123.482H128c4.518,0,7.529-3.012,7.529-7.529     s-3.012-7.529-7.529-7.529h-10.541c3.765-67.012,57.224-120.471,123.482-124.235v11.294c0,4.518,3.012,7.529,7.529,7.529     S256,49.694,256,45.176V33.882c66.259,3.765,119.718,57.224,123.482,124.235h-10.541c-4.518,0-7.529,3.012-7.529,7.529     s3.012,7.529,7.529,7.529h10.541C375.718,240.188,322.259,292.894,256,297.412z" fill="#FFFFFF"/>
		</g>
	</g>
</g>
<g>
</g>
<g>
</g>
<g>
</g>
<g>
</g>
<g>
</g>
<g>
</g>
<g>
</g>
<g>
</g>
<g>
</g>
<g>
</g>
<g>
</g>
<g>
</g>
<g>
</g>
<g>
</g>
<g>
</g>
</svg>
