<?xml version="1.0" encoding="iso-8859-1"?>
<!-- Generator: Adobe Illustrator 19.0.0, SVG Export Plug-In . SVG Version: 6.00 Build 0)  -->
<svg xmlns="http://www.w3.org/2000/svg" xmlns:xlink="http://www.w3.org/1999/xlink" version="1.1" id="Capa_1" x="0px" y="0px" viewBox="0 0 497.694 497.694" style="enable-background:new 0 0 497.694 497.694;" xml:space="preserve" width="512px" height="512px">
<g>
	<g>
		<g>
			<path d="M496.941,65.129c0-13.553-11.294-24.847-24.847-24.847h-57.224c-4.518,0-7.529,3.012-7.529,7.529     s3.012,7.529,7.529,7.529h57.224c5.271,0,9.788,4.518,9.788,9.788v243.2H15.059v-243.2c0-5.271,4.518-9.788,9.788-9.788h56.471     c4.518,0,7.529-3.012,7.529-7.529s-3.012-7.529-7.529-7.529H24.847C11.294,40.282,0,51.577,0,65.129V377.6     c0,13.553,11.294,24.847,24.847,24.847h161.129l-23.341,43.671h-24.847c-4.518,0-7.529,3.012-7.529,7.529v36.141     c0,4.518,3.012,7.529,7.529,7.529h222.118c4.518,0,7.529-3.012,7.529-7.529v-36.894c0-4.518-3.012-7.529-7.529-7.529h-24.847     l-23.341-43.671h161.129c13.553,0,24.847-11.294,24.847-24.847C496.941,310.588,496.941,171.294,496.941,65.129z      M332.625,460.424c1.567,0,6.423,0,19.752,0v21.835H145.318v-21.835c154.187,0,182.41,0,186.641,0     C332.474,460.424,332.637,460.424,332.625,460.424z M316.988,445.365H179.953l23.341-43.671h90.353L316.988,445.365z      M481.882,377.6c0,5.271-4.518,9.788-9.788,9.788H24.847c-5.271,0-9.788-4.518-9.788-9.788v-54.965h466.823V377.6z" fill="#FFFFFF"/>
			<path d="M248.471,379.106c13.553,0,24.847-11.294,24.847-24.847c0-13.553-11.294-24.847-24.847-24.847     s-24.847,11.294-24.847,24.847C223.624,367.812,234.918,379.106,248.471,379.106z M248.471,344.471     c5.271,0,9.788,4.518,9.788,9.788c0,5.271-4.518,9.788-9.788,9.788s-9.788-4.518-9.788-9.788     C238.682,348.988,243.2,344.471,248.471,344.471z" fill="#FFFFFF"/>
			<path d="M112.941,196.894h271.812c8.282,0,15.059-6.776,15.059-15.059v-166.4c0-8.282-6.776-15.059-15.059-15.059H112.941     c-8.282,0-15.059,6.776-15.059,15.059v166.4C97.882,190.118,104.659,196.894,112.941,196.894z M112.941,15.435H384v166.4H112.941     V15.435z" fill="#FFFFFF"/>
			<path d="M105.412,245.835h200.282c3.012,12.047,14.306,21.082,27.106,21.082s24.094-9.035,27.106-21.082h31.624     c4.518,0,7.529-3.012,7.529-7.529s-3.012-7.529-7.529-7.529h-32.376c-3.765-11.294-14.306-19.576-26.353-19.576     s-23.341,8.282-26.353,19.576H105.412c-4.518,0-7.529,3.012-7.529,7.529S100.894,245.835,105.412,245.835z M332.8,226.259     c7.529,0,12.8,6.024,12.8,12.8s-6.023,12.8-12.8,12.8s-12.8-6.023-12.8-12.8C320,231.529,325.271,226.259,332.8,226.259z" fill="#FFFFFF"/>
			<path d="M293.647,90.729l-70.776-42.165c-2.259-1.506-6.024-0.753-8.282,0.753c-2.259,3.012-3.765,5.271-3.765,7.529v82.824     c0,6.023,6.776,10.541,12.047,6.776l70.776-42.165c2.259-1.506,3.765-3.765,3.765-6.776S295.906,92.235,293.647,90.729z      M225.882,127.624V69.647l48.941,29.365L225.882,127.624z" fill="#FFFFFF"/>
			<path d="M105.412,286.494h36.894c4.518,0,7.529-3.012,7.529-7.529c0-4.518-3.012-7.529-7.529-7.529h-36.894     c-4.518,0-7.529,3.012-7.529,7.529C97.882,283.482,100.894,286.494,105.412,286.494z" fill="#FFFFFF"/>
			<path d="M172.424,271.435c-4.518,0-7.529,3.012-7.529,7.529c0,4.518,3.012,7.529,7.529,7.529h36.894     c4.518,0,7.529-3.012,7.529-7.529c0-4.518-3.012-7.529-7.529-7.529H172.424z" fill="#FFFFFF"/>
			<path d="M239.435,271.435c-4.518,0-7.529,3.012-7.529,7.529c0,4.518,3.012,7.529,7.529,7.529h36.894     c4.518,0,7.529-3.012,7.529-7.529c0-4.518-3.012-7.529-7.529-7.529H239.435z" fill="#FFFFFF"/>
		</g>
	</g>
</g>
<g>
</g>
<g>
</g>
<g>
</g>
<g>
</g>
<g>
</g>
<g>
</g>
<g>
</g>
<g>
</g>
<g>
</g>
<g>
</g>
<g>
</g>
<g>
</g>
<g>
</g>
<g>
</g>
<g>
</g>
</svg>
